<svg width="49" height="49" viewBox="0 0 49 49" fill="none" xmlns="http://www.w3.org/2000/svg">
<path d="M42.875 6.125H6.125C3.87916 6.125 2.04166 7.9625 2.04166 10.2083V26.5417H6.125V10.2083H42.875V42.875C45.1208 42.875 46.9583 41.0375 46.9583 38.7917V10.2083C46.9583 7.9625 45.1208 6.125 42.875 6.125Z" fill="#5C8EE5"/>
<path d="M18.375 28.5833C22.8853 28.5833 26.5417 24.927 26.5417 20.4167C26.5417 15.9063 22.8853 12.25 18.375 12.25C13.8647 12.25 10.2083 15.9063 10.2083 20.4167C10.2083 24.927 13.8647 28.5833 18.375 28.5833Z" fill="#5C8EE5"/>
<path d="M31.4212 33.81C27.9912 32.0542 23.5404 30.625 18.375 30.625C13.2096 30.625 8.75875 32.0542 5.32875 33.81C4.33254 34.3231 3.49799 35.1022 2.91775 36.0609C2.3375 37.0196 2.03426 38.1203 2.04167 39.2408V44.9167H34.7083V39.2408C34.7083 36.9542 33.4629 34.8512 31.4212 33.81Z" fill="#5C8EE5"/>
</svg>
