<svg width="30" height="31" viewBox="0 0 30 31" fill="none" xmlns="http://www.w3.org/2000/svg">
<path d="M26.25 3.875H3.75C2.375 3.875 1.25 5.0375 1.25 6.45833V16.7917H3.75V6.45833H26.25V27.125C27.625 27.125 28.75 25.9625 28.75 24.5417V6.45833C28.75 5.0375 27.625 3.875 26.25 3.875Z" fill="#5C8EE5"/>
<path d="M11.25 18.0833C14.0114 18.0833 16.25 15.7701 16.25 12.9167C16.25 10.0632 14.0114 7.75 11.25 7.75C8.48858 7.75 6.25 10.0632 6.25 12.9167C6.25 15.7701 8.48858 18.0833 11.25 18.0833Z" fill="#5C8EE5"/>
<path d="M19.2375 21.39C17.1375 20.2792 14.4125 19.375 11.25 19.375C8.0875 19.375 5.3625 20.2792 3.2625 21.39C2.65257 21.7146 2.14162 22.2075 1.78637 22.814C1.43112 23.4205 1.24546 24.1169 1.25 24.8258V28.4167H21.25V24.8258C21.25 23.3792 20.4875 22.0487 19.2375 21.39Z" fill="#5C8EE5"/>
</svg>
